name C:\Users\r0593348\3dpredictsim\Results\batch_windlass\Pog_s1_tmt_bCst_d00_k800_WL10_ig24_pas.mot
datacolumns 128
datarows 4
range 0.00000000 0.03229498
endheader
time	pelvis_tilt	pelvis_list	pelvis_rotation	pelvis_tx	pelvis_ty	pelvis_tz	hip_flexion_l	hip_adduction_l	hip_rotation_l	hip_flexion_r	hip_adduction_r	hip_rotation_r	knee_angle_l	knee_angle_r	ankle_angle_l	ankle_angle_r	subtalar_angle_l	subtalar_angle_r	tmt_angle_l	tmt_angle_r	mtp_angle_l	mtp_angle_r	lumbar_extension	lumbar_bending	lumbar_rotation	arm_flex_l	arm_add_l	arm_rot_l	arm_flex_r	arm_add_r	arm_rot_r	elbow_flex_l	elbow_flex_r	pro_sup_l	pro_sup_r	glut_med1_l/activation	glut_med2_l/activation	glut_med3_l/activation	glut_min1_l/activation	glut_min2_l/activation	glut_min3_l/activation	semimem_l/activation	semiten_l/activation	bifemlh_l/activation	bifemsh_l/activation	sar_l/activation	add_long_l/activation	add_brev_l/activation	add_mag1_l/activation	add_mag2_l/activation	add_mag3_l/activation	tfl_l/activation	pect_l/activation	grac_l/activation	glut_max1_l/activation	glut_max2_l/activation	glut_max3_l/activation	iliacus_l/activation	psoas_l/activation	quad_fem_l/activation	gem_l/activation	peri_l/activation	rect_fem_l/activation	vas_med_l/activation	vas_int_l/activation	vas_lat_l/activation	med_gas_l/activation	lat_gas_l/activation	soleus_l/activation	tib_post_l/activation	flex_dig_l/activation	flex_hal_l/activation	tib_ant_l/activation	per_brev_l/activation	per_long_l/activation	per_tert_l/activation	ext_dig_l/activation	ext_hal_l/activation	ercspn_l/activation	intobl_l/activation	extobl_l/activation	glut_med1_r/activation	glut_med2_r/activation	glut_med3_r/activation	glut_min1_r/activation	glut_min2_r/activation	glut_min3_r/activation	semimem_r/activation	semiten_r/activation	bifemlh_r/activation	bifemsh_r/activation	sar_r/activation	add_long_r/activation	add_brev_r/activation	add_mag1_r/activation	add_mag2_r/activation	add_mag3_r/activation	tfl_r/activation	pect_r/activation	grac_r/activation	glut_max1_r/activation	glut_max2_r/activation	glut_max3_r/activation	iliacus_r/activation	psoas_r/activation	quad_fem_r/activation	gem_r/activation	peri_r/activation	rect_fem_r/activation	vas_med_r/activation	vas_int_r/activation	vas_lat_r/activation	med_gas_r/activation	lat_gas_r/activation	soleus_r/activation	tib_post_r/activation	flex_dig_r/activation	flex_hal_r/activation	tib_ant_r/activation	per_brev_r/activation	per_long_r/activation	per_tert_r/activation	ext_dig_r/activation	ext_hal_r/activation	ercspn_r/activation	intobl_r/activation	extobl_r/activation	
          0.00000000	         -2.92201599	         -1.45782795	          6.50947830	          0.00000000	          0.85491704	         -0.00320909	        -18.57097144	         -1.56036840	          9.69907969	         32.52355635	          2.69018742	         -1.28577331	         -9.41503595	        -20.55832817	         -2.02641521	         -2.39209997	         11.72384682	         -6.50012015	         -1.43484989	         -0.06140880	         26.56546245	          0.86130536	         -0.98577854	         -0.31307342	         -1.73742421	          5.24646823	        -13.46698157	         16.03878063	         -9.36755740	        -13.70498783	          8.60524102	         35.47226443	         17.14189661	         86.51662706	         86.51662706	          0.25742763	          0.09011598	          0.05000254	          0.31805314	          0.20035783	          0.09674764	          0.05001134	          0.05000113	          0.05000100	          0.07386558	          0.10111422	          0.13323502	          0.05000162	          0.05000195	          0.05000638	          0.05000874	          0.30891457	          0.05000722	          0.05000288	          0.05003393	          0.05001701	          0.05000934	          0.37564720	          0.56032964	          0.05000172	          0.05001051	          0.05000152	          0.26040531	          0.05012937	          0.05897673	          0.09383507	          0.30208673	          0.38862617	          0.25878044	          0.20336763	          0.22678719	          0.29337057	          0.05000003	          0.09483176	          0.17749140	          0.05000022	          0.05000005	          0.05000022	          0.05000004	          0.05000089	          0.05000009	          0.05000086	          0.05000110	          0.05897062	          0.05000051	          0.05000071	          0.05000221	          0.06782516	          0.06878021	          0.24618396	          0.05897125	          0.05000221	          0.10824229	          0.13373303	          0.14595722	          0.14662689	          0.12472502	          0.05019280	          0.05002548	          0.10408089	          0.05897136	          0.05897294	          0.11594770	          0.06600553	          0.06992283	          0.21372197	          0.05896967	          0.05000074	          0.05000040	          0.11603364	          0.12505471	          0.10148780	          0.06955112	          0.06955105	          0.06955110	          0.05000028	          0.05897130	          0.05897100	          0.41198161	          0.35847005	          0.18715837	          0.32198981	          0.63564347	          0.15972806	          0.05412733	          0.11508779	          0.11435401	
          0.01076499	         -2.90939766	         -1.61038059	          6.80198410	          0.01656864	          0.85380861	         -0.00300966	        -18.23516674	         -1.91566190	          9.46244503	         32.02141113	          3.18880384	         -1.03694862	        -11.60173281	        -20.44529296	         -3.00619820	         -2.64095372	         12.89497190	         -7.28261661	         -1.86320699	         -0.08655306	         27.50642238	          1.03680914	         -0.76710239	         -0.03246476	         -1.80968769	          4.99296436	        -13.49513535	         16.38673693	        -10.44155464	        -13.69511740	          8.38715975	         36.49525397	         17.06008581	         86.51662706	         86.51662706	          0.21826796	          0.07640732	          0.05000014	          0.26967036	          0.16987895	          0.08203022	          0.05000366	          0.05000044	          0.05000032	          0.06262896	          0.08573291	          0.15583505	          0.19286608	          0.05019096	          0.05000473	          0.05000091	          0.26192317	          0.11412966	          0.05000402	          0.05000208	          0.05000133	          0.05000099	          0.31850267	          0.49185805	          0.05000028	          0.05000107	          0.05000079	          0.22079177	          0.09998145	          0.05000949	          0.10197494	          0.25613236	          0.32950717	          0.21941395	          0.17243079	          0.19228795	          0.24874234	          0.05000040	          0.08040591	          0.15049113	          0.05000081	          0.06276902	          0.05000083	          0.05000011	          0.05000020	          0.06820450	          0.05897070	          0.05897004	          0.05000036	          0.05897167	          0.05897124	          0.05004845	          0.05897100	          0.05831737	          0.22554164	          0.05000064	          0.05000229	          0.11410389	          0.23668934	          0.12375519	          0.13253889	          0.14300665	          0.05000052	          0.08195332	          0.08824847	          0.05000103	          0.05000198	          0.12959954	          0.06612283	          0.05928802	          0.39800994	          0.05000124	          0.05897416	          0.05006853	          0.19465842	          0.19612385	          0.16510753	          0.05897082	          0.05897078	          0.05897081	          0.05000004	          0.05000073	          0.05000118	          0.56744119	          0.30393858	          0.15868730	          0.60527055	          0.71822484	          0.35152852	          0.05000013	          0.09758031	          0.09695814	
          0.02152999	         -2.89156277	         -1.77006163	          7.06453287	          0.03339740	          0.85251665	         -0.00279938	        -17.79054158	         -2.25428849	          9.21168445	         31.40533144	          3.68977429	         -0.71159387	        -13.99063287	        -20.91797310	         -4.04956405	         -2.69287874	         13.98642722	         -8.09886453	         -2.30132126	         -0.11655347	         28.11584514	          1.20568777	         -0.52928191	          0.26107856	         -1.87350055	          4.66172696	        -13.53709255	         16.66639250	        -11.51433929	        -13.69014021	          8.22455544	         37.51660482	         16.97475916	         86.51662706	         86.51662706	          0.18506448	          0.06478409	          0.05897045	          0.22864753	          0.14403659	          0.06955166	          0.05000983	          0.05000111	          0.05001054	          0.05310172	          0.07269128	          0.24061490	          0.35976352	          0.25505331	          0.07527461	          0.14841459	          0.22207912	          0.09676952	          0.05000389	          0.05881510	          0.05897007	          0.05899139	          0.27005111	          0.42718099	          0.05897112	          0.05897123	          0.05000201	          0.18720430	          0.11625823	          0.13802569	          0.08649448	          0.21716871	          0.27938153	          0.18603602	          0.14620014	          0.16303678	          0.21090306	          0.14404974	          0.06817479	          0.13471698	          0.05000062	          0.19262277	          0.11079198	          0.06946443	          0.06955099	          0.05897101	          0.05000021	          0.05000037	          0.15094148	          0.05000084	          0.05000057	          0.05000044	          0.05000033	          0.05000041	          0.19123162	          0.05000040	          0.05000502	          0.09674637	          0.20068420	          0.31361637	          0.25890101	          0.16693540	          0.05000251	          0.06950827	          0.08160956	          0.14568854	          0.14755945	          0.14050461	          0.05606438	          0.05026993	          0.34637500	          0.05897999	          0.05000338	          0.05897095	          0.33447921	          0.32135440	          0.27315647	          0.05000002	          0.05000005	          0.05000000	          0.06946853	          0.05026398	          0.05000056	          0.54309508	          0.25770261	          0.13454739	          0.51319550	          0.60896680	          0.29805316	          0.05000003	          0.08273611	          0.08220857	
          0.03229498	         -2.87097305	         -1.92637774	          7.29528044	          0.05035348	          0.85109833	         -0.00260165	        -17.23361168	         -2.56060164	          8.95761818	         30.52498321	          4.14750138	         -0.34022559	        -16.57276778	        -21.40517073	         -5.11286211	         -2.59678678	         14.97202407	         -8.94465306	         -2.62335400	         -0.38104684	         28.01341559	          1.21374255	         -0.28261188	          0.55302118	         -1.92539525	          4.27309351	        -13.58735291	         16.87948116	        -12.55262461	        -13.69217531	          8.15197732	         38.52780628	         16.85662455	         86.51662706	         86.51662706	          0.25954657	          0.05492902	          0.05000013	          0.19390276	          0.12212556	          0.05897142	          0.05025680	          0.05000510	          0.05000285	          0.05000060	          0.06163428	          0.20401237	          0.30503578	          0.21625401	          0.06382440	          0.12583761	          0.28256697	          0.08205326	          0.05000540	          0.05000296	          0.05000286	          0.05001809	          0.22897024	          0.39471770	          0.05000047	          0.05000162	          0.05000031	          0.15872624	          0.09857274	          0.11702886	          0.07333673	          0.18413233	          0.23688117	          0.15773564	          0.12395983	          0.13823546	          0.17882014	          0.21770066	          0.13174838	          0.13369250	          0.28236742	          0.25737725	          0.13580693	          0.10394545	          0.05897069	          0.05000026	          0.31633611	          0.35444544	          0.45736427	          0.35334891	          0.16962038	          0.26393472	          0.08608154	          0.12059818	          0.16214101	          0.06955128	          0.05000117	          0.08202917	          0.17015576	          0.26590885	          0.21951939	          0.17476309	          0.05000045	          0.05896639	          0.11062308	          0.27890794	          0.22177853	          0.16049077	          0.05000052	          0.05000040	          0.29368368	          0.05000929	          0.18847695	          0.05000016	          0.29269585	          0.31276833	          0.26430259	          0.05897086	          0.05897090	          0.05897088	          0.15201637	          0.05000127	          0.05015133	          0.57793967	          0.21850013	          0.11407965	          0.43512683	          0.59043038	          0.31073462	          0.05354543	          0.08202976	          0.06970276	
